<?xml version="1.0" standalone="no"?>
<!DOCTYPE svg PUBLIC "-//W3C//DTD SVG 20010904//EN"
 "http://www.w3.org/TR/2001/REC-SVG-20010904/DTD/svg10.dtd">
<svg version="1.0" xmlns="http://www.w3.org/2000/svg"
 width="634.000000pt" height="634.000000pt" viewBox="0 0 634.000000 634.000000"
 preserveAspectRatio="xMidYMid meet">
<metadata>
Created by potrace 1.14, written by Peter Selinger 2001-2017
</metadata>
<g transform="translate(0.000000,634.000000) scale(0.100000,-0.100000)"
fill="#000000" stroke="none">
<path d="M4520 6329 c-161 -22 -287 -30 -600 -39 -509 -14 -1043 -38 -1138
-51 -79 -10 -84 -9 -125 13 -34 20 -49 23 -82 17 -22 -4 -77 -10 -122 -14 -46
-4 -83 -11 -83 -16 0 -5 -12 -15 -26 -21 -25 -12 -26 -13 -20 -97 4 -46 9 -87
12 -90 3 -3 22 -11 42 -16 25 -7 38 -17 39 -30 2 -11 0 -14 -3 -7 -3 6 -14 12
-25 12 -14 0 -19 -7 -19 -30 0 -23 6 -33 27 -43 15 -6 36 -20 45 -29 10 -10
27 -18 37 -18 33 0 34 -19 2 -50 -36 -36 -46 -78 -36 -157 10 -85 11 -90 38
-188 26 -94 51 -234 43 -242 -3 -3 -1 -16 5 -30 5 -13 12 -54 15 -89 3 -36 7
-75 10 -87 2 -12 7 -49 10 -82 3 -33 11 -78 17 -100 6 -22 12 -53 12 -70 2
-43 15 -175 20 -205 2 -14 7 -54 11 -90 3 -36 9 -69 12 -75 4 -5 7 -28 8 -50
2 -82 4 -94 20 -109 8 -9 11 -16 6 -16 -5 0 -14 -18 -21 -40 -6 -22 -16 -40
-20 -40 -5 0 -14 -15 -21 -32 -7 -18 -19 -47 -26 -65 -8 -17 -14 -44 -14 -61
0 -28 35 -121 49 -132 17 -13 51 -70 51 -85 0 -20 -27 -19 -225 9 -148 21
-168 28 -188 72 -9 19 -21 34 -26 34 -5 0 -18 16 -30 35 -11 19 -25 35 -31 35
-6 0 -21 9 -32 20 -29 27 -80 40 -158 40 -90 0 -104 6 -129 51 -12 21 -26 39
-29 39 -4 0 -21 24 -37 54 -48 89 -115 115 -229 89 -37 -8 -76 -23 -87 -34
-10 -10 -37 -28 -60 -39 l-42 -22 -226 46 c-124 25 -266 52 -316 60 -49 9
-117 20 -149 25 -60 11 -106 6 -106 -10 0 -5 -7 -9 -15 -9 -8 0 -19 -9 -25
-20 -6 -11 -16 -20 -23 -20 -7 0 -18 -9 -25 -20 -7 -11 -17 -20 -23 -20 -6 0
-29 -17 -50 -37 -21 -21 -50 -47 -64 -58 -15 -11 -40 -32 -56 -48 -16 -15 -32
-27 -35 -27 -3 0 -12 -6 -19 -12 -8 -7 -26 -22 -41 -33 -14 -11 -32 -26 -39
-32 -8 -7 -16 -13 -20 -13 -4 0 -24 -18 -45 -39 -21 -21 -43 -40 -49 -42 -5
-2 -12 -16 -16 -31 -6 -25 -5 -27 52 -38 32 -7 112 -25 178 -41 66 -16 152
-35 190 -43 39 -8 124 -28 190 -46 66 -18 152 -36 191 -40 53 -5 77 -13 93
-29 23 -23 20 -41 -5 -41 -8 0 -14 -4 -14 -10 0 -5 -11 -12 -25 -16 -14 -3
-31 -14 -38 -24 -6 -9 -25 -24 -42 -33 -22 -11 -36 -31 -53 -76 -44 -115 -20
-250 63 -361 39 -52 57 -98 71 -187 3 -21 10 -46 15 -55 16 -31 11 -96 -9
-107 -22 -12 -117 0 -150 18 -24 13 -92 6 -92 -10 0 -5 -6 -9 -12 -9 -7 0 -22
-12 -33 -26 -11 -14 -28 -34 -38 -45 -10 -11 -27 -59 -38 -107 -20 -86 -40
-130 -65 -145 -7 -4 -18 -23 -24 -42 -6 -19 -15 -35 -20 -35 -4 0 -17 -22 -29
-50 -12 -27 -27 -50 -34 -50 -7 0 -19 -10 -27 -21 -8 -12 -21 -28 -28 -35 -7
-7 -18 -28 -24 -46 -14 -41 -41 -65 -88 -79 -34 -10 -80 -60 -80 -87 0 -7 -6
-12 -13 -12 -14 0 -37 -73 -37 -116 0 -22 4 -26 24 -22 19 4 22 1 18 -15 -5
-18 -2 -20 39 -13 120 18 139 19 139 7 0 -6 9 -11 20 -11 15 0 20 7 20 25 0
14 4 25 9 25 10 0 32 56 25 63 -3 3 6 14 20 25 15 11 26 27 26 35 0 9 8 21 18
26 11 7 13 10 3 11 -21 0 -6 56 24 88 48 52 52 57 59 80 4 12 12 22 17 22 5 0
9 9 9 19 0 34 11 50 28 44 9 -4 20 -10 23 -15 6 -9 56 -14 79 -7 11 3 14 -4
11 -29 -2 -29 1 -35 28 -45 17 -6 32 -20 35 -33 8 -30 59 -39 221 -36 104 2
138 6 169 22 21 10 44 16 51 14 6 -3 19 6 28 20 9 13 30 27 46 31 16 3 32 13
35 21 3 8 12 14 21 14 8 0 15 7 15 15 0 9 13 24 30 33 19 11 30 25 30 39 0 12
6 26 14 30 7 4 18 31 25 60 9 47 8 57 -14 107 -18 40 -31 57 -49 62 -29 7 -29
9 -52 119 -51 250 -57 351 -24 412 11 21 20 45 20 55 0 43 59 63 89 30 9 -10
35 -26 59 -36 23 -11 42 -23 42 -28 0 -6 23 -7 55 -3 38 5 55 4 55 -4 0 -6 9
-11 20 -11 11 0 20 -4 20 -9 0 -14 150 -24 166 -10 18 14 117 6 166 -14 76
-32 167 -56 235 -62 l72 -7 7 -35 c5 -26 1 -47 -15 -80 -11 -24 -21 -55 -21
-69 0 -27 29 -84 42 -84 4 0 8 -17 8 -38 0 -26 -8 -45 -25 -64 -18 -20 -24
-34 -20 -51 4 -16 -1 -31 -19 -50 -14 -15 -29 -39 -32 -53 -5 -20 -11 -24 -28
-20 -94 27 -200 48 -247 49 -50 2 -59 -1 -80 -26 -13 -16 -37 -41 -53 -56 -44
-44 -43 -43 -83 -88 -48 -53 -139 -152 -203 -221 -28 -30 -50 -58 -50 -62 0
-5 -8 -11 -18 -14 -9 -3 -28 -24 -42 -46 -14 -22 -32 -43 -42 -46 -9 -3 -23
-18 -30 -35 -7 -16 -23 -32 -35 -35 -23 -6 -53 -44 -53 -67 0 -8 -13 -20 -30
-27 -16 -7 -35 -25 -42 -41 -7 -16 -25 -33 -39 -39 -15 -7 -35 -28 -45 -51
-11 -21 -23 -39 -29 -39 -5 0 -23 -18 -39 -40 -17 -22 -35 -40 -42 -40 -7 0
-15 -9 -19 -20 -3 -11 -24 -39 -46 -62 -22 -24 -55 -59 -73 -78 -64 -68 -71
-102 -23 -118 17 -6 91 -31 162 -57 72 -26 157 -55 190 -65 115 -35 394 -129
413 -139 10 -5 54 -19 98 -31 l79 -20 33 37 c17 21 32 41 32 44 0 3 9 17 20
30 11 13 23 29 28 34 4 6 22 34 41 64 18 30 39 61 47 68 8 8 14 18 14 22 0 5
11 21 25 37 36 41 41 47 55 75 7 13 22 33 34 45 12 11 28 31 36 44 8 13 22 31
30 40 8 9 31 38 50 66 19 27 39 54 45 60 5 6 19 23 30 39 11 15 28 35 38 44 9
8 17 19 17 24 0 5 6 15 13 22 6 8 26 31 42 51 17 20 40 47 53 59 12 12 22 27
22 34 0 6 4 11 9 11 5 0 12 9 16 19 7 22 38 37 43 22 2 -6 19 -13 38 -17 19
-3 34 -10 34 -15 0 -5 14 -9 31 -9 17 0 38 -4 48 -10 10 -5 49 -12 86 -16 63
-7 71 -10 111 -50 23 -24 45 -53 49 -64 3 -11 10 -20 14 -20 5 0 14 -13 21
-30 7 -16 16 -30 20 -30 4 0 19 -22 34 -50 15 -27 31 -50 35 -50 4 0 17 -18
30 -40 12 -22 26 -40 32 -40 5 0 9 -6 9 -14 0 -8 7 -21 15 -29 18 -18 41 -81
61 -164 9 -34 26 -74 40 -90 22 -26 30 -28 92 -28 54 0 72 4 88 19 18 19 19
19 23 1 2 -10 -6 -25 -17 -34 -11 -9 -23 -25 -26 -36 -3 -11 -17 -32 -30 -46
-13 -14 -27 -35 -30 -46 -7 -21 -50 -82 -81 -114 -8 -9 -15 -20 -15 -26 0 -9
-10 -23 -50 -70 -5 -7 -17 -28 -27 -47 -9 -20 -20 -36 -25 -36 -4 0 -15 -15
-24 -32 -9 -18 -20 -35 -24 -38 -11 -7 -40 -79 -40 -99 0 -15 78 -50 164 -72
17 -4 144 -46 281 -94 236 -81 305 -104 570 -190 61 -20 149 -52 197 -70 48
-19 115 -40 149 -47 l61 -12 24 29 c13 17 24 33 24 37 0 7 53 118 239 503 96
196 142 280 166 297 5 4 33 8 62 8 46 0 54 3 72 29 12 16 21 31 21 34 0 6 118
255 151 320 10 21 19 44 19 51 0 8 7 16 15 20 8 3 15 11 15 19 0 7 19 51 42
97 89 183 286 577 296 595 11 20 30 58 134 270 32 66 66 134 75 150 110 203
168 335 151 347 -24 15 -176 49 -718 158 -80 16 -188 39 -241 51 -53 12 -107
19 -120 16 -21 -6 -93 -89 -106 -125 -9 -22 -113 9 -113 34 0 8 -4 14 -10 14
-15 0 -49 32 -71 68 -12 17 -31 35 -44 38 -14 3 -27 15 -30 26 -4 10 -22 26
-41 35 -18 9 -36 24 -39 34 -7 22 -40 59 -53 59 -25 0 -29 98 -4 122 32 32 49
53 62 78 7 14 16 27 20 30 3 3 24 34 45 70 22 36 48 74 58 85 10 11 26 37 34
58 8 20 19 37 23 37 4 0 30 35 56 78 26 42 50 79 54 82 13 12 40 60 40 73 0
33 -14 37 -455 112 -110 19 -231 41 -270 49 -102 22 -419 76 -443 76 -22 0
-71 -44 -107 -96 -11 -16 -31 -40 -45 -54 -14 -14 -39 -43 -55 -65 -16 -22
-37 -48 -47 -58 -22 -22 -34 -67 -20 -76 15 -9 -24 -91 -55 -114 -22 -17 -27
-17 -92 -2 -77 19 -86 29 -96 110 -7 56 -23 86 -72 131 -39 36 -42 68 -12 134
12 25 22 52 23 60 1 8 6 28 10 43 7 23 2 42 -23 91 -17 35 -42 69 -56 76 -27
14 -34 29 -40 80 -16 140 -25 224 -30 280 -3 36 -7 81 -10 100 -2 19 -7 64
-10 100 -3 36 -8 76 -10 90 -6 38 -22 177 -30 275 -6 75 -16 167 -20 195 -3
14 -7 50 -10 80 -10 107 -26 216 -37 262 -9 38 -9 50 2 63 7 9 14 33 14 53 1
34 3 37 41 43 162 28 1162 64 1196 43 5 -3 40 -5 78 -5 60 0 71 -3 76 -20 4
-10 10 -19 15 -19 5 0 21 -12 35 -26 25 -25 28 -26 158 -23 103 2 142 -2 179
-15 43 -15 53 -15 105 -2 32 9 60 21 62 28 2 7 17 26 33 41 36 36 68 102 68
139 0 37 -17 36 -25 -2 -4 -16 -10 -30 -15 -30 -13 0 -6 86 9 104 12 14 11 19
-12 39 -14 12 -28 37 -32 55 -4 19 -13 32 -22 32 -9 0 -21 7 -27 15 -13 18
-99 25 -176 14z m-207 -3271 c12 -6 29 -19 38 -30 9 -10 20 -18 25 -18 5 0 52
-40 103 -90 51 -49 89 -90 83 -90 -5 0 -20 -16 -33 -35 -29 -43 -44 -44 -170
-9 -51 14 -116 29 -144 34 -93 15 -105 20 -105 46 0 27 22 86 40 106 42 50 60
74 60 80 0 7 28 14 63 17 10 0 28 -4 40 -11z m-1648 -255 c33 -2 62 -9 65 -13
3 -5 25 -12 48 -16 23 -4 44 -9 46 -13 2 -3 -5 -25 -16 -48 l-20 -43 -94 0
c-81 0 -97 3 -114 20 -11 11 -26 20 -34 20 -16 0 -33 77 -20 90 13 12 46 18
64 13 8 -3 42 -7 75 -10z m845 -1413 c25 -6 55 -13 68 -15 l23 -6 -30 -41
c-17 -23 -31 -46 -31 -50 0 -12 -42 -53 -62 -60 -12 -5 -19 1 -26 20 -9 28
-38 66 -81 108 -19 20 -21 26 -11 39 14 17 82 20 150 5z"/>
<path d="M6162 1730 c-18 -4 -39 -16 -47 -26 -13 -18 -14 -18 -39 5 -14 14
-26 20 -27 15 0 -5 -2 -28 -5 -50 -5 -38 -3 -42 20 -48 14 -3 26 -11 26 -16 0
-5 15 -12 33 -15 35 -7 126 19 139 39 14 21 8 62 -12 84 -22 23 -34 25 -88 12z"/>
<path d="M6124 985 c-4 -8 -12 -15 -20 -15 -17 0 -18 -22 -1 -39 10 -11 10
-14 0 -18 -24 -9 -13 -83 12 -83 7 0 15 -4 17 -9 2 -6 26 -13 53 -16 52 -7 62
-2 118 51 22 23 21 33 -6 68 -50 65 -67 76 -119 76 -34 0 -50 -4 -54 -15z"/>
<path d="M5956 354 c-10 -14 -16 -36 -14 -48 3 -12 -1 -28 -9 -34 -20 -19 -16
-50 10 -63 12 -7 24 -15 27 -18 11 -14 63 -31 95 -31 38 0 103 27 122 50 24
30 4 115 -30 126 -10 3 -28 15 -38 25 -15 15 -33 19 -81 19 -56 -1 -65 -4 -82
-26z"/>
</g>
</svg>
